<svg id="Calque_1" data-name="Calque 1" xmlns="http://www.w3.org/2000/svg" viewBox="0 0 45.56 50"><defs><style>.cls-1{fill:#f5eee8;}</style></defs><title>logo-renard-chiffon</title><path class="cls-1" d="M26.25,35.48" transform="translate(-2.66 0)"/><path class="cls-1" d="M11.69,29.29" transform="translate(-2.66 0)"/><path class="cls-1" d="M33.8,30.7" transform="translate(-2.66 0)"/><path class="cls-1" d="M25,23.58" transform="translate(-2.66 0)"/><path class="cls-1" d="M42.91,15.59" transform="translate(-2.66 0)"/><path class="cls-1" d="M11.69,39.89" transform="translate(-2.66 0)"/><path class="cls-1" d="M24.74,35.81" transform="translate(-2.66 0)"/><path class="cls-1" d="M21.57,22.76" transform="translate(-2.66 0)"/><path class="cls-1" d="M33.19,25.6" transform="translate(-2.66 0)"/><path class="cls-1" d="M22.44,39.45" transform="translate(-2.66 0)"/><path class="cls-1" d="M25,11.7" transform="translate(-2.66 0)"/><path class="cls-1" d="M29.71,42.62" transform="translate(-2.66 0)"/><path class="cls-1" d="M43.32,41" transform="translate(-2.66 0)"/><path class="cls-1" d="M19,6.71a2.3,2.3,0,0,1,.77-.9s-.27.05-.62.14a4.92,4.92,0,0,1,.61-1.37s-3.81,2.5-3.5,4.4a5,5,0,0,0,3.06,2.72A14.88,14.88,0,0,1,19,6.71Z" transform="translate(-2.66 0)"/><path class="cls-1" d="M17,43.9s0-1.37,2.27-1.77,2.5,3.43,2.5,3.43.47,3.43.43,4.26a5.33,5.33,0,0,1-1.77,0,4.74,4.74,0,0,1-1.24-.35S20.4,46.67,17,43.9Z" transform="translate(-2.66 0)"/><path class="cls-1" d="M27.76,45.84s-.16-2.67-2.18-3-2.24,3.13-2.24,3.13-.42,3.13-.39,3.89a5.31,5.31,0,0,0,1.52.17,5.38,5.38,0,0,0,1.31-.22S24.72,48.38,27.76,45.84Z" transform="translate(-2.66 0)"/><path class="cls-1" d="M37.49,42.62c1.16-.57,9.21-6.24,10.47-15.84a23.66,23.66,0,0,0-.35-9.21A22.72,22.72,0,0,0,40.34,5.4,23.08,23.08,0,0,0,24.74,0a13.24,13.24,0,0,1,10,6.8,15,15,0,0,0-7.71-2.94c2.69,1,5.05,9.06,4.29,15.64a11.83,11.83,0,0,0,2.84,9.78c1.23,1.45,2.33,3.2,1.57,5.15,0,0-2.08,6.4,1.73,8.18" transform="translate(-2.66 0)"/><path class="cls-1" d="M14.68,43.55a12.39,12.39,0,0,1,4.81-4.36l0,0c.73-.38,1.46-.75,2.19-1.1-1.35-.2-1.7-.73-1.7-.73A4.07,4.07,0,0,0,22.51,36c-.78.16-1.05,0-1.28-.17C25.54,30.66,28.72,33,28.72,33c-6.82,3.6-1.83,8.66-1.83,8.66a5.86,5.86,0,0,0,6.31-.14,9.53,9.53,0,0,1-1.41,2.74,9.07,9.07,0,0,1-1.17,1.3c-.48.69-.93,1.06-.81,1.75a1.7,1.7,0,0,0,1.54,1.36C30.86,46.11,36.79,43,36.79,43c-2.19-.33-2.74-3.38-2.67-5.26a8.58,8.58,0,0,1,.37-2.31c1.47-4.74-2.27-7.25-4.05-7.93-5.86-2.27-7.62-2.55-8.87-3.47a5.35,5.35,0,0,1-1.42-1.31C15,27,17.06,33.36,17.06,33.36a5.8,5.8,0,0,1,.34,3.31,6.12,6.12,0,0,1-2.68,3.83,6,6,0,0,0-2.62,2.76,5.23,5.23,0,0,0-.41,1.35A3.09,3.09,0,0,0,11.81,46a1.77,1.77,0,0,0,1.39,1.11A10.31,10.31,0,0,1,14.68,43.55Z" transform="translate(-2.66 0)"/><path class="cls-1" d="M11.94,37.28m0,4.33s.86-3.06.22-3.53c-8.9-6.53-4.59-17.92-4.59-17.92-.15,1.39,1.37,2.23,1.37,2.23-1.49-1.94-.1-6.23-.1-6.23a7.07,7.07,0,0,0,3.45,4.28,9.23,9.23,0,0,0,4.42,1,8.54,8.54,0,0,0,4-1.14c4.16-2.21,4.32-5.67,4.32-5.8V13.12a4.07,4.07,0,0,1-2,.59,9.4,9.4,0,0,1-4.35-.84,9.28,9.28,0,0,1-1.85-1.33,8.89,8.89,0,0,1-2.25-3.48,4.25,4.25,0,0,1-.36-1.55,3,3,0,0,1,1-1,2.6,2.6,0,0,0-.83.1A6.59,6.59,0,0,1,15,2.53a16.85,16.85,0,0,0-2.9,1.56A19.19,19.19,0,0,0,6.94,9.34a22.67,22.67,0,0,0-2.7,4.84,22.92,22.92,0,0,0-1.56,9.4,24.5,24.5,0,0,0,1.77,8.79,21.74,21.74,0,0,0,2.83,4.91,18.55,18.55,0,0,0,4.66,4.33m.2-26.9a17,17,0,0,1,2.23-.34,3.81,3.81,0,0,1,2.5.74c.56.42,1.15.95,1.13,1.29C18,16.4,14.05,14.6,12.14,14.71Z" transform="translate(-2.66 0)"/></svg>